<svg width="720" height="454" viewBox="0 0 720 454" fill="none" xmlns="http://www.w3.org/2000/svg">
<rect width="720" height="454" rx="6" fill="#F9F9F7"/>


<text x="360" y="30" text-anchor="middle" font-family="system-ui, -apple-system, sans-serif" font-size="14" font-weight="600" fill="#1E1E1E">Each turn resends the full context, and the unchanged prefix reads from cache</text>


<text x="44" y="60" font-family="system-ui, -apple-system, sans-serif" font-size="11" font-weight="600" fill="#757575">Turn 1</text>
<rect x="44" y="68" width="92" height="30" rx="3" fill="#FCEEE0" stroke="#D4A27F" stroke-width="1.25"/>
<text x="90" y="87" text-anchor="middle" font-family="system-ui, -apple-system, sans-serif" font-size="9.5" fill="#1E1E1E">System prompt</text>
<rect x="138" y="68" width="92" height="30" rx="3" fill="#FCEEE0" stroke="#D4A27F" stroke-width="1.25"/>
<text x="184" y="87" text-anchor="middle" font-family="system-ui, -apple-system, sans-serif" font-size="9.5" fill="#1E1E1E">Project context</text>
<rect x="232" y="68" width="64" height="30" rx="3" fill="#FCEEE0" stroke="#D4A27F" stroke-width="1.25"/>
<text x="264" y="87" text-anchor="middle" font-family="system-ui, -apple-system, sans-serif" font-size="9.5" fill="#1E1E1E">Message 1</text>
<text x="44" y="116" font-family="system-ui, -apple-system, sans-serif" font-size="10" fill="#B0703F">First turn: no cache yet, the whole request is processed and written</text>


<text x="44" y="148" font-family="system-ui, -apple-system, sans-serif" font-size="11" font-weight="600" fill="#757575">Turn 2</text>
<rect x="44" y="156" width="92" height="30" rx="3" fill="#E8E8E4"/>
<text x="90" y="175" text-anchor="middle" font-family="system-ui, -apple-system, sans-serif" font-size="9.5" fill="#9E9E9E">System prompt</text>
<rect x="138" y="156" width="92" height="30" rx="3" fill="#E8E8E4"/>
<text x="184" y="175" text-anchor="middle" font-family="system-ui, -apple-system, sans-serif" font-size="9.5" fill="#9E9E9E">Project context</text>
<rect x="232" y="156" width="64" height="30" rx="3" fill="#E8E8E4"/>
<text x="264" y="175" text-anchor="middle" font-family="system-ui, -apple-system, sans-serif" font-size="9.5" fill="#9E9E9E">Message 1</text>
<rect x="298" y="156" width="64" height="30" rx="3" fill="#FCEEE0" stroke="#D4A27F" stroke-width="1.25"/>
<text x="330" y="175" text-anchor="middle" font-family="system-ui, -apple-system, sans-serif" font-size="9.5" fill="#1E1E1E">Reply 1</text>
<rect x="364" y="156" width="64" height="30" rx="3" fill="#FCEEE0" stroke="#D4A27F" stroke-width="1.25"/>
<text x="396" y="175" text-anchor="middle" font-family="system-ui, -apple-system, sans-serif" font-size="9.5" fill="#1E1E1E">Message 2</text>
<text x="44" y="204" font-family="system-ui, -apple-system, sans-serif" font-size="10" fill="#9E9E9E">Read from cache (entire turn 1 request)</text>
<text x="298" y="204" font-family="system-ui, -apple-system, sans-serif" font-size="10" fill="#B0703F">New: written to cache</text>


<text x="44" y="236" font-family="system-ui, -apple-system, sans-serif" font-size="11" font-weight="600" fill="#757575">Turn 3</text>
<rect x="44" y="244" width="92" height="30" rx="3" fill="#E8E8E4"/>
<text x="90" y="263" text-anchor="middle" font-family="system-ui, -apple-system, sans-serif" font-size="9.5" fill="#9E9E9E">System prompt</text>
<rect x="138" y="244" width="92" height="30" rx="3" fill="#E8E8E4"/>
<text x="184" y="263" text-anchor="middle" font-family="system-ui, -apple-system, sans-serif" font-size="9.5" fill="#9E9E9E">Project context</text>
<rect x="232" y="244" width="64" height="30" rx="3" fill="#E8E8E4"/>
<text x="264" y="263" text-anchor="middle" font-family="system-ui, -apple-system, sans-serif" font-size="9.5" fill="#9E9E9E">Message 1</text>
<rect x="298" y="244" width="64" height="30" rx="3" fill="#E8E8E4"/>
<text x="330" y="263" text-anchor="middle" font-family="system-ui, -apple-system, sans-serif" font-size="9.5" fill="#9E9E9E">Reply 1</text>
<rect x="364" y="244" width="64" height="30" rx="3" fill="#E8E8E4"/>
<text x="396" y="263" text-anchor="middle" font-family="system-ui, -apple-system, sans-serif" font-size="9.5" fill="#9E9E9E">Message 2</text>
<rect x="430" y="244" width="64" height="30" rx="3" fill="#FCEEE0" stroke="#D4A27F" stroke-width="1.25"/>
<text x="462" y="263" text-anchor="middle" font-family="system-ui, -apple-system, sans-serif" font-size="9.5" fill="#1E1E1E">Reply 2</text>
<rect x="496" y="244" width="64" height="30" rx="3" fill="#FCEEE0" stroke="#D4A27F" stroke-width="1.25"/>
<text x="528" y="263" text-anchor="middle" font-family="system-ui, -apple-system, sans-serif" font-size="9.5" fill="#1E1E1E">Message 3</text>
<text x="44" y="292" font-family="system-ui, -apple-system, sans-serif" font-size="10" fill="#9E9E9E">Read from cache (entire turn 2 request)</text>
<text x="430" y="292" font-family="system-ui, -apple-system, sans-serif" font-size="10" fill="#B0703F">New</text>


<text x="44" y="324" font-family="system-ui, -apple-system, sans-serif" font-size="11" font-weight="600" fill="#757575">Turn 4: the system prompt changed</text>
<rect x="44" y="332" width="92" height="30" rx="3" fill="#FCEEE0" stroke="#B0703F" stroke-width="2"/>
<text x="90" y="351" text-anchor="middle" font-family="system-ui, -apple-system, sans-serif" font-size="9.5" font-weight="600" fill="#8C5630">System prompt</text>
<rect x="138" y="332" width="92" height="30" rx="3" fill="#FCEEE0" stroke="#D4A27F" stroke-width="1.25"/>
<text x="184" y="351" text-anchor="middle" font-family="system-ui, -apple-system, sans-serif" font-size="9.5" fill="#1E1E1E">Project context</text>
<rect x="232" y="332" width="64" height="30" rx="3" fill="#FCEEE0" stroke="#D4A27F" stroke-width="1.25"/>
<text x="264" y="351" text-anchor="middle" font-family="system-ui, -apple-system, sans-serif" font-size="9.5" fill="#1E1E1E">Message 1</text>
<rect x="298" y="332" width="64" height="30" rx="3" fill="#FCEEE0" stroke="#D4A27F" stroke-width="1.25"/>
<text x="330" y="351" text-anchor="middle" font-family="system-ui, -apple-system, sans-serif" font-size="9.5" fill="#1E1E1E">Reply 1</text>
<rect x="364" y="332" width="64" height="30" rx="3" fill="#FCEEE0" stroke="#D4A27F" stroke-width="1.25"/>
<text x="396" y="351" text-anchor="middle" font-family="system-ui, -apple-system, sans-serif" font-size="9.5" fill="#1E1E1E">Message 2</text>
<rect x="430" y="332" width="64" height="30" rx="3" fill="#FCEEE0" stroke="#D4A27F" stroke-width="1.25"/>
<text x="462" y="351" text-anchor="middle" font-family="system-ui, -apple-system, sans-serif" font-size="9.5" fill="#1E1E1E">Reply 2</text>
<rect x="496" y="332" width="64" height="30" rx="3" fill="#FCEEE0" stroke="#D4A27F" stroke-width="1.25"/>
<text x="528" y="351" text-anchor="middle" font-family="system-ui, -apple-system, sans-serif" font-size="9.5" fill="#1E1E1E">Message 3</text>
<rect x="562" y="332" width="64" height="30" rx="3" fill="#FCEEE0" stroke="#D4A27F" stroke-width="1.25"/>
<text x="594" y="351" text-anchor="middle" font-family="system-ui, -apple-system, sans-serif" font-size="9.5" fill="#1E1E1E">Reply 3</text>
<rect x="628" y="332" width="64" height="30" rx="3" fill="#FCEEE0" stroke="#D4A27F" stroke-width="1.25"/>
<text x="660" y="351" text-anchor="middle" font-family="system-ui, -apple-system, sans-serif" font-size="9.5" fill="#1E1E1E">Message 4</text>
<text x="44" y="380" font-family="system-ui, -apple-system, sans-serif" font-size="10" fill="#B0703F">Changed</text>
<text x="138" y="380" font-family="system-ui, -apple-system, sans-serif" font-size="10" fill="#B0703F">Reprocessed: the prefix no longer matches, so even unchanged content is computed and written again</text>


<line x1="44" y1="406" x2="676" y2="406" stroke="#E0E0E0" stroke-width="1"/>
<rect x="44" y="424" width="18" height="18" rx="3" fill="#E8E8E4"/>
<text x="70" y="437" font-family="system-ui, -apple-system, sans-serif" font-size="10.5" fill="#757575">Cached: read from a previous request</text>
<rect x="290" y="424" width="18" height="18" rx="3" fill="#FCEEE0" stroke="#D4A27F" stroke-width="1.25"/>
<text x="316" y="437" font-family="system-ui, -apple-system, sans-serif" font-size="10.5" fill="#757575">New or recomputed: processed and written to cache</text>
</svg>
